<svg width="74" height="78" xmlns="http://www.w3.org/2000/svg"><path d="M12.708 60.671c-2.357 0-4.268 1.977-4.268 4.416 0 2.438 1.91 4.415 4.268 4.415 2.358 0 4.269-1.977 4.269-4.415 0-2.439-1.911-4.416-4.269-4.416zM59.777 7.31c-2.358 0-4.269 1.976-4.269 4.415s1.911 4.415 4.269 4.415c2.357 0 4.268-1.976 4.268-4.415 0-2.432-1.9-4.406-4.252-4.415h-.016zM28.88 25.172v5.4c0 .812.637 1.471 1.423 1.471h42.28c.78-.01 1.406-.666 1.406-1.472v-5.4c0-.812-.637-1.47-1.423-1.47h-42.28c-.782.004-1.414.661-1.414 1.47h.008zm16.262 24.961v-5.39c0-.814-.638-1.472-1.423-1.472H1.439C.654 43.26.01 43.913 0 44.725V50.133c0 .813.637 1.472 1.423 1.472h42.28c.785.01 1.43-.642 1.439-1.455v-.017zm28.563-7.24a1.397 1.397 0 0 0-.968-.556l-5.196-.547c-.765-.084-1.455.48-1.552 1.27-2.192 16.783-17.12 28.55-33.346 26.284a28.83 28.83 0 0 1-6.568-1.726c-.725-.285-1.536.092-1.813.841l-2.008 4.987c-.305.745.032 1.603.752 1.918.02.01.04.017.061.025 19.43 7.732 41.24-2.292 48.715-22.39a40.075 40.075 0 0 0 2.207-9.039 1.482 1.482 0 0 0-.284-1.068zM.309 30.427a1.498 1.498 0 0 1-.17-1.135C4.421 12.061 19.435.011 36.636 0A36.44 36.44 0 0 1 49.02 2.153c.752.28 1.142 1.139.87 1.916v.002l-1.846 5.046c-.28.732-1.07 1.104-1.788.84a28.69 28.69 0 0 0-9.62-1.681c-6.776-.007-13.345 2.418-18.586 6.863-4.924 4.122-8.45 9.76-10.066 16.097-.184.775-.941 1.25-1.69 1.06l-5.09-1.178a1.413 1.413 0 0 1-.895-.69z" fill="#50B68C"/></svg>